<svg id="Lag_1" data-name="Lag 1" xmlns="http://www.w3.org/2000/svg" viewBox="0 0 649.2 83.83"><defs><style>.cls-1{fill:none;stroke:#000;stroke-miterlimit:10;stroke-width:2px;}</style></defs><path class="cls-1" d="M237.75,250.11l16.4-1.6v40.2l9.8-11.9v-28.3l15.6,1.6v24.7l-9.1,10.2,9.1,10.4v30.4l-14.9-1.5-.2-29.9L254,305.91l-.1,18.5-16,2Z" transform="translate(-236.75 -244.56)"/><path class="cls-1" d="M286.65,281.61l22-14.7,22.1,13.6-.1,42.5-3,2.7-12.1-8.4-16.2,8.8-12.8-6.4Zm15.1,27.5,3.4,2.6,11.1-5.9.1-14.4-14.7-8.6Z" transform="translate(-236.75 -244.56)"/><path class="cls-1" d="M336.75,271.51l6-5,10.3,10.8,13.6-10.6,9,12-10,10.3-5.1-5.7-7.9,5.7-.1,37.1-15.7-2.7h-.1Z" transform="translate(-236.75 -244.56)"/><path class="cls-1" d="M379.65,315.51v-37.1l20.7-13,24.4,11.7-.5,37.3-21,11.7Zm15.4-7.4,14.7,5.7-.3-29.1-14.4-6.3Z" transform="translate(-236.75 -244.56)"/><path class="cls-1" d="M431.75,252.81l14.7-6.7.6,79.9-15.3-3.4Z" transform="translate(-236.75 -244.56)"/><path class="cls-1" d="M451.05,257.11l9.8-9.8,9.2,9.9-9.4,9.3Zm2.6,19.3,7.1-5.4,8,5.8v47l-4.5,3.3-10.2-8.7Z" transform="translate(-236.75 -244.56)"/><path class="cls-1" d="M475,278.71v-6.3l7.21-5.5,7.7,12.7,17.3-12.7,12.1,13.3.1,40.7-6.9,5.6-8.4-6.5-.1-31-4.1-4.5-10,7.2v29l-7.3,5.5-7.61-6.3v-41.2Z" transform="translate(-236.75 -244.56)"/><path class="cls-1" d="M526.54,277.71l22.21-11.4,19.9,21.4-27.2,20.2v4.7l21.8-9.7v14.6l-18.5,8.6-18.3-4.6Zm24,10.6-9.2-9.6v18.2Z" transform="translate(-236.75 -244.56)"/><path class="cls-1" d="M619.54,290.91h-5.6v30.5l-7.8,4.7-7.2-4.7v-62.3l21-13,19.21,12.8v32H628.34l8.5,7.5,6.81,23.8-7,3.9-9.61-5.4Zm-5.6-7.2,11.2-5.2v-15.2l-5.6-2.8-5.6,2.8Z" transform="translate(-236.75 -244.56)"/><path class="cls-1" d="M650.74,277.71l22.2-11.4,19.9,21.4-27.2,20.2v4.7l21.8-9.7v14.6l-18.5,8.6-18.3-4.6Zm24,10.6-9.2-9.6v18.2Z" transform="translate(-236.75 -244.56)"/><path class="cls-1" d="M696.84,252.81l14.7-6.7.6,79.9-15.3-3.4Z" transform="translate(-236.75 -244.56)"/><path class="cls-1" d="M720.44,284.81l16.5-18.4,20.8,10.3-7,13.8-15.1-7.7,20.7,28.2-13,15.1-29-13.4,8.8-11.2,15.2,6.2Z" transform="translate(-236.75 -244.56)"/><path class="cls-1" d="M767,284.31h-6.2v-6.4H767v-21.8l14.8,4v17.8h9.7v6.5H782l-.2,41.7H767Z" transform="translate(-236.75 -244.56)"/><path class="cls-1" d="M799.64,277.71l22.2-11.4,19.9,21.4-27.2,20.2v4.7l21.8-9.7v14.6l-18.5,8.6-18.3-4.6Zm24,10.6-9.2-9.6v18.2Z" transform="translate(-236.75 -244.56)"/><path class="cls-1" d="M845.74,271.51l6-5,10.3,10.8,13.6-10.6,9,12-10,10.3-5.1-5.7-7.9,5.7-.1,37.1-15.7-2.7h-.1Z" transform="translate(-236.75 -244.56)"/></svg>
