<svg xmlns="http://www.w3.org/2000/svg" viewBox="0 0 362.3 156">
    <defs>
        <style>
            .cls-1 {
                fill: #212121;
            }

        </style>
    </defs>
    <g id="Lag_2" data-name="Lag 2">
        <g id="Lag_1-2" data-name="Lag 1">
            <path class="cls-1" d="M20.3,10.1V32.4L37.6,10.1H60.9v1.6L37.6,39.2l23.1,34v1.5H37.3L23.9,54.3l-3.6,4.4v16H0V10.1Z" />
            <path class="cls-1" d="M65.05,49.3q4.45-3.79,12.25-5.5L86,41.9v-.6c0-1.8-.45-3-1.35-3.5A9.51,9.51,0,0,0,80.1,37a24.67,24.67,0,0,0-3.75.3q-1.95.3-3.9.75T68.7,39.1c-1.2.4-2.27.8-3.2,1.2L62.3,27.2a38,38,0,0,1,4.75-1.85A40.93,40.93,0,0,1,72.5,24q2.81-.49,5.5-.8a45.54,45.54,0,0,1,5-.3q11.5,0,17,4.05T105.4,40.5V61.7c0,.94,0,2,.15,3.2s.23,2.42.4,3.65.37,2.4.6,3.5a15.8,15.8,0,0,0,.75,2.65L90,76.1a14.17,14.17,0,0,1-1-2.2,14,14,0,0,1-.65-2.7,13.21,13.21,0,0,1-4.85,3.4A18.4,18.4,0,0,1,76,76a20.48,20.48,0,0,1-6-.85,12.84,12.84,0,0,1-4.9-2.7,12.58,12.58,0,0,1-3.3-4.75,18.58,18.58,0,0,1-1.2-7.1Q60.6,53.1,65.05,49.3ZM79,61.9a4.6,4.6,0,0,0,2.8.8,8,8,0,0,0,2.5-.35A6.72,6.72,0,0,0,86,61.6V54.1l-3.3.7a8.9,8.9,0,0,0-3.45,1.35A3.48,3.48,0,0,0,77.9,59.2,3.12,3.12,0,0,0,79,61.9Z" />
            <path class="cls-1" d="M131.5,23.8l.8,8.8q2.1-5.4,5.45-7.55a13,13,0,0,1,7.15-2.15c1.13,0,2.22.05,3.25.15a13.78,13.78,0,0,1,2.55.45L149,40.2a17.19,17.19,0,0,0-2.25-.3c-.9-.06-1.72-.1-2.45-.1q-7.4,0-11.1,3.1V74.7H113.8V23.8Z" />
            <path class="cls-1" d="M153.25,36.9a21.6,21.6,0,0,1,5.5-8.2,20.71,20.71,0,0,1,7.9-4.45,31.7,31.7,0,0,1,9.25-1.35,35.76,35.76,0,0,1,9.35,1.2,19.29,19.29,0,0,1,7.85,4.2,21,21,0,0,1,5.45,8.15,35.58,35.58,0,0,1,2,13,33.85,33.85,0,0,1-2,12.6,21.21,21.21,0,0,1-5.5,8.15,20.87,20.87,0,0,1-7.9,4.4A31.7,31.7,0,0,1,175.9,76a37.08,37.08,0,0,1-9.35-1.15,18.67,18.67,0,0,1-7.85-4.15,20.91,20.91,0,0,1-5.45-8.1,35.43,35.43,0,0,1-2.05-13.1A33.85,33.85,0,0,1,153.25,36.9Zm25.1,24a3,3,0,0,0,1.7-1.6,11.66,11.66,0,0,0,1-3.55,43.67,43.67,0,0,0,.35-6.2,44.86,44.86,0,0,0-.35-6.25,11.24,11.24,0,0,0-1-3.55,3.28,3.28,0,0,0-1.7-1.6,7.7,7.7,0,0,0-4.9,0,3.52,3.52,0,0,0-1.75,1.6,9.65,9.65,0,0,0-1,3.55,51.65,51.65,0,0,0-.3,6.25,43.67,43.67,0,0,0,.35,6.2,11.66,11.66,0,0,0,1,3.55,3,3,0,0,0,1.7,1.6,8.75,8.75,0,0,0,4.9,0Z" />
            <path class="cls-1" d="M226.2,4.1V74.7H206.8V4.8Z" />
            <path class="cls-1" d="M237.05,17.4q-2.66-2.1-2.65-7.6t2.65-7.7C238.81.7,241.3,0,244.5,0a12.18,12.18,0,0,1,7.55,2.1q2.74,2.1,2.75,7.7t-2.75,7.6a12.18,12.18,0,0,1-7.55,2.1C241.3,19.5,238.81,18.8,237.05,17.4Zm17.15,6.8V74.7H234.8V24.2Z" />
            <path class="cls-1" d="M280.4,23.8l.5,6a15,15,0,0,1,6.45-5.55,19.73,19.73,0,0,1,7.25-1.35q8.81,0,12.7,5.15t3.9,14.05V74.7H291.9V45.4q0-4.4-1-5.95c-.7-1-2.12-1.55-4.25-1.55a5,5,0,0,0-2.6.65,5.47,5.47,0,0,0-1.8,1.75V74.7H262.8V23.8Z" />
            <path class="cls-1" d="M318.85,37.35A21.71,21.71,0,0,1,324,29.1a20.18,20.18,0,0,1,7.85-4.7,31.24,31.24,0,0,1,9.85-1.5q10.4,0,15.5,6.1t5.1,17.4c0,1.34,0,2.72-.1,4.15s-.17,2.92-.3,4.45H336a12.61,12.61,0,0,0,.35,3.3,3.71,3.71,0,0,0,1.3,2.05,5.23,5.23,0,0,0,2.5,1,25.14,25.14,0,0,0,4,.25,31.1,31.1,0,0,0,6.2-.75,26,26,0,0,0,6.4-2.15l5.2,11.6a31.12,31.12,0,0,1-9.5,4.4A43.68,43.68,0,0,1,341.2,76a32.59,32.59,0,0,1-10.15-1.45,18.39,18.39,0,0,1-7.6-4.65,20.65,20.65,0,0,1-4.8-8.25A39.31,39.31,0,0,1,317,49.5,35.29,35.29,0,0,1,318.85,37.35ZM346,42.3a8.5,8.5,0,0,0-.85-3.95c-.57-1.1-1.95-1.65-4.15-1.65a4.27,4.27,0,0,0-3.7,1.5,8.8,8.8,0,0,0-1.2,4.9H346Z" />
            <path class="cls-1" d="M28,90.1a31.79,31.79,0,0,1,10.75,1.6A18.66,18.66,0,0,1,46,96.2a17,17,0,0,1,4,7,30.42,30.42,0,0,1,1.25,9,25.71,25.71,0,0,1-2.1,10.85,15.4,15.4,0,0,1-6.8,7.15L56.2,153v1.7H34.6L23.5,133.3H20v21.4H0V90.1ZM26.55,118a6.23,6.23,0,0,0,2.35-.7,3.36,3.36,0,0,0,1.5-1.65,7.72,7.72,0,0,0,.5-3.1,8.91,8.91,0,0,0-.45-3.15,3.26,3.26,0,0,0-1.4-1.7,6,6,0,0,0-2.35-.7,31.38,31.38,0,0,0-3.3-.15H20v11.3h3.4A28.92,28.92,0,0,0,26.55,118Z" />
            <path class="cls-1" d="M58.45,117.35a21.71,21.71,0,0,1,5.15-8.25,20.25,20.25,0,0,1,7.85-4.7,31.28,31.28,0,0,1,9.85-1.5q10.41,0,15.5,6.1t5.1,17.4c0,1.34,0,2.72-.1,4.15s-.16,2.92-.3,4.45H75.6a13.06,13.06,0,0,0,.35,3.3,3.82,3.82,0,0,0,1.3,2,5.27,5.27,0,0,0,2.5,1,25.23,25.23,0,0,0,4,.25,31,31,0,0,0,6.2-.75,25.86,25.86,0,0,0,6.4-2.15l5.2,11.6a31,31,0,0,1-9.5,4.4A43.62,43.62,0,0,1,80.8,156a32.64,32.64,0,0,1-10.15-1.45,18.39,18.39,0,0,1-7.6-4.65,20.65,20.65,0,0,1-4.8-8.25A39.31,39.31,0,0,1,56.6,129.5,35.53,35.53,0,0,1,58.45,117.35Zm27.15,5a8.5,8.5,0,0,0-.85-4c-.56-1.1-2-1.65-4.15-1.65a4.28,4.28,0,0,0-3.7,1.5,9,9,0,0,0-1.2,4.9h9.9Z" />
            <path class="cls-1" d="M127.7,84.1v70.6H108.3V84.8Z" />
            <path class="cls-1" d="M142.5,141a31,31,0,0,0,8.5,1.1,3.5,3.5,0,0,0,2.35-.6,2.2,2.2,0,0,0,.65-1.7,1.92,1.92,0,0,0-.5-1.4,5.53,5.53,0,0,0-1.9-1l-5.1-1.9a23.53,23.53,0,0,1-9.3-5.8q-3.19-3.49-3.2-9.8,0-8,5.25-12.5t13.85-4.5a67.9,67.9,0,0,1,10.15.7,30.22,30.22,0,0,1,7.95,2.2l-3.7,14c-.66-.2-1.46-.48-2.4-.85a31.21,31.21,0,0,0-3-1c-1.1-.3-2.25-.56-3.45-.8a19.09,19.09,0,0,0-3.6-.35,3.26,3.26,0,0,0-1.95.55,1.82,1.82,0,0,0-.75,1.55,2.2,2.2,0,0,0,.65,1.7,9.36,9.36,0,0,0,2.75,1.4l5.7,2.1a22.21,22.21,0,0,1,8.7,5.45q3.1,3.36,3.1,9.25,0,7.9-5.4,12.55T152,156c-1.53,0-3.17-.08-4.9-.25s-3.43-.38-5.1-.65-3.25-.58-4.75-.95a22.94,22.94,0,0,1-3.85-1.25l2.4-14Q138.6,139.9,142.5,141Z" />
            <path class="cls-1" d="M175,117.8V104.7l7.3-2.2,4-10.5,14.2-.4v12.6h11.6v13.6H200.5v16.8a12.25,12.25,0,0,0,.7,4.6c.47,1.14,1.63,1.7,3.5,1.7a10.09,10.09,0,0,0,2.35-.3,8.31,8.31,0,0,0,2.15-.8l3.9,12.3a24.53,24.53,0,0,1-7.55,2.9,45.29,45.29,0,0,1-10,1q-6.6,0-10.45-3.4t-3.85-10.8v-24Z" />
            <path class="cls-1" d="M216.75,117.35a21.71,21.71,0,0,1,5.15-8.25,20.25,20.25,0,0,1,7.85-4.7,31.28,31.28,0,0,1,9.85-1.5q10.4,0,15.5,6.1t5.1,17.4c0,1.34,0,2.72-.1,4.15s-.17,2.92-.3,4.45H233.9a13.06,13.06,0,0,0,.35,3.3,3.76,3.76,0,0,0,1.3,2,5.27,5.27,0,0,0,2.5,1,25.14,25.14,0,0,0,3.95.25,31.1,31.1,0,0,0,6.2-.75,26,26,0,0,0,6.4-2.15l5.2,11.6a31.12,31.12,0,0,1-9.5,4.4,43.68,43.68,0,0,1-11.2,1.3A32.64,32.64,0,0,1,229,154.55a18.39,18.39,0,0,1-7.6-4.65,20.65,20.65,0,0,1-4.8-8.25,39.31,39.31,0,0,1-1.65-12.15A35.29,35.29,0,0,1,216.75,117.35Zm27.15,5a8.5,8.5,0,0,0-.85-4c-.57-1.1-2-1.65-4.15-1.65a4.28,4.28,0,0,0-3.7,1.5,9,9,0,0,0-1.2,4.9h9.9Z" />
            <path class="cls-1" d="M284.3,103.8l.8,8.8q2.1-5.4,5.45-7.55a13,13,0,0,1,7.15-2.15c1.13,0,2.22,0,3.25.15a13.78,13.78,0,0,1,2.55.45l-1.7,16.7a17.19,17.19,0,0,0-2.25-.3c-.9-.06-1.72-.1-2.45-.1q-7.39,0-11.1,3.1v31.8H266.6V103.8Z" />
            <path class="cls-1" d="M296.05,141a7.53,7.53,0,0,1,2.1-3.15,7.67,7.67,0,0,1,3.2-1.6,16.65,16.65,0,0,1,3.95-.45,17.33,17.33,0,0,1,4,.45,7.75,7.75,0,0,1,3.25,1.6A7.9,7.9,0,0,1,314.7,141a13.64,13.64,0,0,1,.8,5,13.21,13.21,0,0,1-.8,4.95,7.85,7.85,0,0,1-2.15,3.1,7.14,7.14,0,0,1-3.25,1.55,19.17,19.17,0,0,1-4,.4,18.43,18.43,0,0,1-3.95-.4,7.05,7.05,0,0,1-3.2-1.55,7.48,7.48,0,0,1-2.1-3.1,13.94,13.94,0,0,1-.75-4.95A14.39,14.39,0,0,1,296.05,141Z" />
        </g>
    </g>
</svg>
